name Walk7.mot
datacolumns 19
datarows 15
range 1.28500000 1.35500000
endheader

                time	   L_ground_force_vx	   L_ground_force_vy	   L_ground_force_vz	   L_ground_force_px	   L_ground_force_py	   L_ground_force_pz	   R_ground_force_vx	   R_ground_force_vy	   R_ground_force_vz	   R_ground_force_px	   R_ground_force_py	   R_ground_force_pz	   L_ground_torque_x	   L_ground_torque_y	   L_ground_torque_z	   R_ground_torque_x	   R_ground_torque_y	   R_ground_torque_z	
          1.28500000	         -2.18934650	         94.19820300	        -11.47708180	         -0.14530262	          0.00000000	         -0.00847267	         -0.00000028	          0.00000214	          0.00000015	          0.00000000	          0.00000000	          0.00000000	          0.00000000	          0.12688128	          0.00000000	          0.00000000	         -0.00000003	          0.00000000	
          1.29000000	         -5.71315415	        132.91078187	        -15.33465567	         -0.18820184	          0.00000000	         -0.01106628	         -0.00000029	          0.00000238	          0.00000016	          0.00000000	          0.00000000	          0.00000000	          0.00000000	          0.18158628	          0.00000000	          0.00000000	         -0.00000004	          0.00000000	
          1.29500000	        -10.50352131	        176.89062625	        -19.45953373	         -0.23193861	          0.00000000	         -0.01374907	         -0.00000026	          0.00000245	          0.00000016	          0.00000000	          0.00000000	          0.00000000	          0.00000000	          0.24450695	          0.00000000	          0.00000000	         -0.00000004	          0.00000000	
          1.30000000	        -16.67684212	        223.86338563	        -23.51401678	         -0.27285740	          0.00000000	         -0.01632142	         -0.00000020	          0.00000227	          0.00000013	         -0.00000000	          0.00000000	          0.00000000	          0.00000000	          0.31277244	          0.00000000	          0.00000000	         -0.00000004	          0.00000000	
          1.30500000	        -24.22179997	        271.15640076	        -27.06192120	         -0.30850170	          0.00000000	         -0.01867471	         -0.00000007	          0.00000170	          0.00000008	         -0.00000000	          0.00000000	         -0.00000000	          0.00000000	          0.38210797	          0.00000000	          0.00000000	         -0.00000004	          0.00000000	
          1.31000000	        -32.90686511	        316.78505014	        -29.64023486	         -0.33769706	          0.00000000	         -0.02078558	          0.00000014	          0.00000060	         -0.00000002	         -0.00000000	          0.00000000	         -0.00000000	          0.00000000	          0.44646041	          0.00000000	          0.00000000	         -0.00000002	          0.00000000	
          1.31500000	        -42.28592493	        359.56805510	        -30.87219177	         -0.36019270	          0.00000000	         -0.02267664	          0.00000045	         -0.00000119	         -0.00000017	         -0.00000000	          0.00000000	         -0.00000000	          0.00000000	          0.49812449	          0.00000000	          0.00000000	          0.00000000	          0.00000000	
          1.32000000	        -51.81342482	        398.93279090	        -30.54365719	         -0.37635243	          0.00000000	         -0.02438915	          0.00000088	         -0.00000382	         -0.00000038	         -0.00000000	          0.00000000	         -0.00000000	          0.00000000	          0.52963606	          0.00000000	          0.00000000	          0.00000004	          0.00000000	
          1.32500000	        -61.01413533	        434.82906932	        -28.63050248	         -0.38690678	          0.00000000	         -0.02596621	          0.00000143	         -0.00000747	         -0.00000066	         -0.00000000	          0.00000000	         -0.00000000	          0.00000000	          0.53626747	          0.00000000	          0.00000000	          0.00000009	          0.00000000	
          1.33000000	        -69.63003836	        467.59624720	        -25.28810219	         -0.39276769	          0.00000000	         -0.02744112	          0.00000213	         -0.00001223	         -0.00000101	         -0.00000000	          0.00000000	         -0.00000000	          0.00000000	          0.51824182	          0.00000000	          0.00000000	          0.00000016	          0.00000000	
          1.33500000	        -77.63566200	        497.73682108	        -20.81402619	         -0.39490334	          0.00000000	         -0.02883009	          0.00000294	         -0.00001814	         -0.00000144	         -0.00000000	          0.00000000	         -0.00000001	          0.00000000	          0.48240340	          0.00000000	          0.00000000	          0.00000025	          0.00000000	
          1.34000000	        -85.09251603	        525.68102210	        -15.61216865	         -0.39425869	          0.00000000	         -0.03012636	          0.00000385	         -0.00002513	         -0.00000193	         -0.00000000	          0.00000000	         -0.00000001	          0.00000000	          0.44168878	          0.00000000	          0.00000000	          0.00000037	          0.00000000	
          1.34500000	        -91.95834829	        551.72090064	        -10.14498254	         -0.39169806	          0.00000000	         -0.03130583	          0.00000480	         -0.00003292	         -0.00000246	         -0.00000001	          0.00000000	         -0.00000001	          0.00000000	          0.41173367	          0.00000000	          0.00000000	          0.00000049	          0.00000000	
          1.35000000	        -98.02373466	        576.11159373	         -4.84003602	         -0.38796498	          0.00000000	         -0.03234170	          0.00000568	         -0.00004101	         -0.00000298	         -0.00000001	          0.00000000	         -0.00000001	          0.00000000	          0.40599832	          0.00000000	          0.00000000	          0.00000063	          0.00000000	
          1.35500000	       -103.02130897	        599.16379133	          0.00057683	         -0.38366272	          0.00000000	         -0.03321426	          0.00000635	         -0.00004858	         -0.00000342	         -0.00000001	          0.00000000	         -0.00000001	          0.00000000	          0.43090374	          0.00000000	          0.00000000	          0.00000077	          0.00000000	
